<?xml version="1.0" encoding="UTF-8" standalone="no"?>
<svg width="100px" height="100px" viewBox="0 0 100 100" version="1.1" xmlns="http://www.w3.org/2000/svg" xmlns:xlink="http://www.w3.org/1999/xlink" xmlns:sketch="http://www.bohemiancoding.com/sketch/ns">
    <!-- Generator: Sketch 3.3.2 (12043) - http://www.bohemiancoding.com/sketch -->
    <title>compose</title>
    <desc>Created with Sketch.</desc>
    <defs></defs>
    <g id="Page-1" stroke="none" stroke-width="1" fill="none" fill-rule="evenodd" sketch:type="MSPage">
        <g id="Group" sketch:type="MSLayerGroup" transform="translate(-292.000000, -24.000000)"></g>
        <g id="compose" sketch:type="MSLayerGroup" transform="translate(19.134831, 19.000000)" stroke="#7A8490" stroke-width="2">
            <path d="M7.00970378,22.948524 L7.00970378,14.5368795 M30.8426966,22.948524 L30.8426966,14.5368795 M23.6549464,29.9582278 L14.0194076,29.9582278 M46.7897727,53.7912206 L38.6234678,53.7912206" id="Stroke-1" stroke-linecap="square" sketch:type="MSShapeGroup"></path>
            <path d="M1.40194076,0.51747191 L12.6174668,0.51747191 C13.3913381,0.51747191 14.0194076,1.14413943 14.0194076,1.91941267 L14.0194076,13.1349387 C14.0194076,13.90881 13.3913381,14.5368795 12.6174668,14.5368795 L1.40194076,14.5368795 C0.628069459,14.5368795 0,13.90881 0,13.1349387 L0,1.91941267 C0,1.14413943 0.628069459,0.51747191 1.40194076,0.51747191 L1.40194076,0.51747191 Z M25.2349336,0.51747191 L36.4504597,0.51747191 C37.2243309,0.51747191 37.8524004,1.14413943 37.8524004,1.91941267 L37.8524004,13.1349387 C37.8524004,13.90881 37.2243309,14.5368795 36.4504597,14.5368795 L25.2349336,14.5368795 C24.4610623,14.5368795 23.8329928,13.90881 23.8329928,13.1349387 L23.8329928,1.91941267 C23.8329928,1.14413943 24.4610623,0.51747191 25.2349336,0.51747191 L25.2349336,0.51747191 Z M1.40194076,22.948524 L12.6174668,22.948524 C13.3913381,22.948524 14.0194076,23.5751915 14.0194076,24.3504648 L14.0194076,35.5659908 C14.0194076,36.3398621 13.3913381,36.9679316 12.6174668,36.9679316 L1.40194076,36.9679316 C0.628069459,36.9679316 0,36.3398621 0,35.5659908 L0,24.3504648 C0,23.5751915 0.628069459,22.948524 1.40194076,22.948524 L1.40194076,22.948524 Z M25.2349336,22.948524 L36.4504597,22.948524 C37.2243309,22.948524 37.8524004,23.5751915 37.8524004,24.3504648 L37.8524004,35.5659908 C37.8524004,36.3398621 37.2243309,36.9679316 36.4504597,36.9679316 L25.2349336,36.9679316 C24.4610623,36.9679316 23.8329928,36.3398621 23.8329928,35.5659908 L23.8329928,24.3504648 C23.8329928,23.5751915 24.4610623,22.948524 25.2349336,22.948524 L25.2349336,22.948524 Z M25.2349336,46.7815169 L36.4504597,46.7815169 C37.2243309,46.7815169 37.8524004,47.4081844 37.8524004,48.1834576 L37.8524004,59.3989837 C37.8524004,60.172855 37.2243309,60.8009244 36.4504597,60.8009244 L25.2349336,60.8009244 C24.4610623,60.8009244 23.8329928,60.172855 23.8329928,59.3989837 L23.8329928,48.1834576 C23.8329928,47.4081844 24.4610623,46.7815169 25.2349336,46.7815169 L25.2349336,46.7815169 Z M49.0679265,22.948524 L60.2834525,22.948524 C61.0573238,22.948524 61.6853933,23.5751915 61.6853933,24.3504648 L61.6853933,35.5659908 C61.6853933,36.3398621 61.0573238,36.9679316 60.2834525,36.9679316 L49.0679265,36.9679316 C48.2940552,36.9679316 47.6659857,36.3398621 47.6659857,35.5659908 L47.6659857,24.3504648 C47.6659857,23.5751915 48.2940552,22.948524 49.0679265,22.948524 L49.0679265,22.948524 Z M49.0679265,46.7815169 L60.2834525,46.7815169 C61.0573238,46.7815169 61.6853933,47.4081844 61.6853933,48.1834576 L61.6853933,59.3989837 C61.6853933,60.172855 61.0573238,60.8009244 60.2834525,60.8009244 L49.0679265,60.8009244 C48.2940552,60.8009244 47.6659857,60.172855 47.6659857,59.3989837 L47.6659857,48.1834576 C47.6659857,47.4081844 48.2940552,46.7815169 49.0679265,46.7815169 L49.0679265,46.7815169 Z M49.0679265,0.51747191 L60.2834525,0.51747191 C61.0573238,0.51747191 61.6853933,1.14413943 61.6853933,1.91941267 L61.6853933,13.1349387 C61.6853933,13.90881 61.0573238,14.5368795 60.2834525,14.5368795 L49.0679265,14.5368795 C48.2940552,14.5368795 47.6659857,13.90881 47.6659857,13.1349387 L47.6659857,1.91941267 C47.6659857,1.14413943 48.2940552,0.51747191 49.0679265,0.51747191 L49.0679265,0.51747191 Z M1.40194076,46.7815169 L12.6174668,46.7815169 C13.3913381,46.7815169 14.0194076,47.4081844 14.0194076,48.1834576 L14.0194076,59.3989837 C14.0194076,60.172855 13.3913381,60.8009244 12.6174668,60.8009244 L1.40194076,60.8009244 C0.628069459,60.8009244 0,60.172855 0,59.3989837 L0,48.1834576 C0,47.4081844 0.628069459,46.7815169 1.40194076,46.7815169 L1.40194076,46.7815169 Z" id="Stroke-2" sketch:type="MSShapeGroup"></path>
        </g>
    </g>
</svg>